<svg xmlns="http://www.w3.org/2000/svg" version="1.1" xmlns:xlink="http://www.w3.org/1999/xlink" xmlns:svgjs="http://svgjs.dev/svgjs" width="1000" height="623" viewBox="0 0 1000 623"><g transform="matrix(1,0,0,1,-0.6060606060606233,110.61355277471057)"><svg viewBox="0 0 396 247" data-background-color="#ffffff" preserveAspectRatio="xMidYMid meet" height="623" width="1000" xmlns="http://www.w3.org/2000/svg" xmlns:xlink="http://www.w3.org/1999/xlink"><g id="tight-bounds" transform="matrix(1,0,0,1,0.2400000000000091,-0.09999999999999432)"><svg viewBox="0 0 395.52 247.2" height="247.2" width="395.52"><g><svg></svg></g><g><svg viewBox="0 0 395.52 247.2" height="247.2" width="395.52"><g transform="matrix(1,0,0,1,75.54432,81.63543002579536)"><svg viewBox="0 0 244.43135999999998 83.92913994840929" height="83.92913994840929" width="244.43135999999998"><g><svg viewBox="0 0 244.43135999999998 83.92913994840929" height="83.92913994840929" width="244.43135999999998"><g><svg viewBox="0 0 244.43135999999998 83.92913994840929" height="83.92913994840929" width="244.43135999999998"><g><svg viewBox="0 0 244.43135999999998 83.92913994840929" height="83.92913994840929" width="244.43135999999998"><g><svg viewBox="0 0 244.43135999999998 83.92913994840929" height="83.92913994840929" width="244.43135999999998"><g><svg viewBox="0 0 244.43135999999998 83.92913994840929" height="83.92913994840929" width="244.43135999999998"><g transform="matrix(1,0,0,1,0,0)"><svg width="244.43135999999998" viewBox="3.049999952316284 -41.54999923706055 174.42999267578125 59.900001525878906" height="83.92913994840929" data-palette-color="#0023ff"><path d="M7.3 3.8L7.3 3.8Q4.9 3.1 3.98 2.4 3.05 1.7 3.05 0.65L3.05 0.65Q3.05-0.15 3.5-1.6 3.95-3.05 4.83-5.03 5.7-7 6.93-9.4 8.15-11.8 9.7-14.55L9.7-14.55Q8.4-14.6 7.38-14.63 6.35-14.65 5.7-14.65L5.7-14.65Q6-15.4 7.4-15.95 8.8-16.5 11.1-16.9L11.1-16.9Q13.05-20.15 15.28-23.1 17.5-26.05 19.75-28.53 22-31 24.25-32.88 26.5-34.75 28.55-35.85L28.55-35.85Q28.6-36.2 28.63-36.45 28.65-36.7 28.65-36.8L28.65-36.8Q29.35-36.8 30.53-36.45 31.7-36.1 32.83-35.6 33.95-35.1 34.83-34.58 35.7-34.05 35.8-33.7L35.8-33.7Q34.15-30.8 32.55-25.03 30.95-19.25 29.9-11.2L29.9-11.2Q29.65-9.2 29.48-6.65 29.3-4.1 29.3-0.95L29.3-0.95Q29.3 0.15 29.3 1.3 29.3 2.45 29.4 3.7L29.4 3.7Q29.3 3.75 29.2 3.75 29.1 3.75 28.8 3.75L28.8 3.75Q28.1 3.75 27.18 3.53 26.25 3.3 25.38 2.98 24.5 2.65 23.88 2.25 23.25 1.85 23.1 1.55L23.1 1.55Q23.05 0.9 23.05 0.28 23.05-0.35 23.05-1.05L23.05-1.05Q23.05-4.15 23.28-7.35 23.5-10.55 24.05-13.95L24.05-13.95Q23.35-14 22.2-14.08 21.05-14.15 19.63-14.2 18.2-14.25 16.57-14.33 14.95-14.4 13.4-14.45L13.4-14.45Q12.2-12.2 11.15-9.98 10.1-7.75 9.35-5.5L9.35-5.5Q8.5-3.1 7.98-0.7 7.45 1.7 7.3 3.8ZM26.6-26.25L26.6-26.25Q26.8-26.95 27.08-28.18 27.35-29.4 27.6-30.75L27.6-30.75Q26.35-30.3 24.83-29.1 23.3-27.9 21.68-26.13 20.05-24.35 18.38-22.13 16.7-19.9 15.15-17.4L15.15-17.4Q19.35-17.75 24.7-17.85L24.7-17.85Q25.1-19.95 25.58-22.03 26.05-24.1 26.6-26.25ZM46.3-23.35L46.3-23.35Q47.3-23.35 48.6-22.75 49.9-22.15 50.9-21.2L50.9-21.2Q50.65-23.2 50.27-24.98 49.9-26.75 49.17-28.65 48.45-30.55 47.25-32.8 46.05-35.05 44.25-37.95L44.25-37.95Q44.4-38.4 44.92-39 45.45-39.6 46.12-40.13 46.8-40.65 47.52-41.05 48.25-41.45 48.9-41.55L48.9-41.55Q50.3-40 51.55-37.68 52.8-35.35 53.75-32.68 54.7-30 55.22-27.15 55.75-24.3 55.75-21.7L55.75-21.7Q55.75-19.1 55.17-16.35 54.6-13.6 53.57-10.98 52.55-8.35 51.2-6 49.85-3.65 48.27-1.8 46.7 0.05 45 1.23 43.3 2.4 41.6 2.7L41.6 2.7Q38.15 2.3 36.32 0.48 34.5-1.35 34.5-4.55L34.5-4.55Q34.5-6.25 35.02-8.25 35.55-10.25 36.42-12.23 37.3-14.2 38.47-16.07 39.65-17.95 40.97-19.45 42.3-20.95 43.65-22 45-23.05 46.3-23.35ZM41.2 0.7L41.2 0.7Q42.95 0.1 44.7-1.95 46.45-4 47.85-6.78 49.25-9.55 50.12-12.73 51-15.9 51-18.85L51-18.85Q51-19.7 51-19.9 51-20.1 50.95-20.3L50.95-20.3Q49.75-19.8 48.4-18.6 47.05-17.4 45.7-15.83 44.35-14.25 43.15-12.4 41.95-10.55 41-8.7 40.05-6.85 39.5-5.15 38.95-3.45 38.95-2.15L38.95-2.15Q38.95 0.35 41.2 0.7ZM57.35-8.8L57.35-8.8Q57.35-11.65 58.52-14.33 59.7-17 61.62-19.07 63.55-21.15 66.02-22.43 68.5-23.7 71.15-23.7L71.15-23.7Q73.75-23.7 75.15-22.4 76.55-21.1 76.55-18.7L76.55-18.7Q76.55-17.55 76.22-16.48 75.9-15.4 75.37-14.55 74.85-13.7 74.15-13.18 73.45-12.65 72.75-12.65L72.75-12.65Q72.15-12.65 71.52-13.03 70.9-13.4 70.5-14L70.5-14Q73.85-17.05 73.85-19.55L73.85-19.55Q73.85-21 72.7-21L72.7-21Q71.7-21 70.2-20.05 68.7-19.1 67.3-17.55L67.3-17.55Q65.15-15.15 64.02-12.23 62.9-9.3 62.9-6.1L62.9-6.1Q62.9-2.05 64.7-1.25L64.7-1.25Q65.45-1.35 66.45-1.7 67.45-2.05 68.6-2.63 69.75-3.2 70.97-3.95 72.2-4.7 73.35-5.55L73.35-5.55Q73.55-5.4 73.7-5.1 73.85-4.8 73.85-4.55L73.85-4.55Q73-3.5 71.9-2.5 70.8-1.5 69.6-0.68 68.4 0.15 67.27 0.73 66.15 1.3 65.3 1.45L65.3 1.45Q63.65 1.3 62.2 0.43 60.75-0.45 59.67-1.85 58.6-3.25 57.97-5.05 57.35-6.85 57.35-8.8ZM83.94 1.75L83.94 1.75Q81.09 1.45 79.39-0.75 77.69-2.95 77.69-6.35L77.69-6.35Q77.69-8.35 78.29-10.5 78.89-12.65 79.99-14.68 81.09-16.7 82.59-18.5 84.09-20.3 85.84-21.6L85.84-21.6Q88.59-23.65 90.99-23.65L90.99-23.65Q92.59-22.8 94.14-20.1L94.14-20.1Q94.39-20.1 94.59-20.13 94.79-20.15 95.04-20.15L95.04-20.15Q97.69-20.15 97.69-15.45L97.69-15.45Q97.69-12.3 96.67-9.47 95.64-6.65 93.82-4.35 91.99-2.05 89.47-0.48 86.94 1.1 83.94 1.75ZM86.49-14L86.49-14Q85.64-12.85 84.89-11.5 84.14-10.15 83.59-8.78 83.04-7.4 82.74-6.13 82.44-4.85 82.44-3.85L82.44-3.85Q82.44-2.65 82.84-1.55 83.24-0.45 83.74-0.3L83.74-0.3Q85.99-0.8 87.87-2.18 89.74-3.55 91.12-5.6 92.49-7.65 93.27-10.25 94.04-12.85 94.04-15.8L94.04-15.8Q94.04-17.1 93.89-17.85 93.74-18.6 93.39-19.15L93.39-19.15Q91.19-18.5 89.47-17.05 87.74-15.6 86.49-14ZM117.34-19.9L117.34-19.9Q117.29-18.95 117.02-17.93 116.74-16.9 116.34-16.07 115.94-15.25 115.49-14.7 115.04-14.15 114.64-14.15L114.64-14.15Q114.09-14.2 113.99-14.9L113.99-14.9Q113.99-15.05 114.12-15.38 114.24-15.7 114.39-16.1 114.54-16.5 114.67-16.9 114.79-17.3 114.79-17.6L114.79-17.6Q114.79-18.3 114.47-18.78 114.14-19.25 113.59-19.25L113.59-19.25Q111.59-19.25 110.54-16.75 109.49-14.25 109.49-9.4L109.49-9.4Q109.49-8.9 109.54-8.8L109.54-8.8Q110.59-8.85 111.42-8.88 112.24-8.9 113.04-8.9L113.04-8.9Q113.09-8.8 113.09-8.5L113.09-8.5Q113.09-8.05 112.89-7.85L112.89-7.85Q111.74-7.6 111.07-7.43 110.39-7.25 110.04-7.1 109.69-6.95 109.62-6.78 109.54-6.6 109.54-6.3L109.54-6.3Q109.54-5.9 109.57-5.5 109.59-5.1 109.59-4.5L109.59-4.5Q109.59-0.3 107.32 2.25 105.04 4.8 100.99 5.2L100.99 5.2Q100.29 5.15 99.54 4.8 98.79 4.45 98.12 3.9 97.44 3.35 96.94 2.68 96.44 2 96.24 1.3L96.24 1.3Q96.24-0.6 97.04-2.33 97.84-4.05 99.22-5.38 100.59-6.7 102.47-7.53 104.34-8.35 106.54-8.5L106.54-8.5Q106.54-9.75 106.29-10.95 106.04-12.15 105.77-13.28 105.49-14.4 105.24-15.48 104.99-16.55 104.99-17.6L104.99-17.6Q104.99-18.95 105.54-20.28 106.09-21.6 106.99-22.73 107.89-23.85 109.09-24.65 110.29-25.45 111.59-25.75L111.59-25.75Q112.14-25.6 113.07-24.88 113.99-24.15 114.89-23.25 115.79-22.35 116.49-21.43 117.19-20.5 117.34-19.9ZM100.84 2.9L100.84 2.9Q102.04 2.4 103.12 1.45 104.19 0.5 104.99-0.7 105.79-1.9 106.27-3.25 106.74-4.6 106.74-5.9L106.74-5.9Q105.74-5.75 104.54-4.98 103.34-4.2 102.29-3.13 101.24-2.05 100.54-0.9 99.84 0.25 99.84 1.1L99.84 1.1Q99.84 2.2 100.84 2.9ZM117.44-3.35L117.44-3.35Q117.44-3.8 117.51-4.48 117.59-5.15 117.79-6.28 117.99-7.4 118.31-9 118.64-10.6 119.14-12.85L119.14-12.85Q119.24-13.35 119.59-14.45 119.94-15.55 120.51-16.78 121.09-18 121.91-19.15 122.74-20.3 123.89-20.85L123.89-20.85Q124.74-20.65 126.14-19.83 127.54-19 128.54-17.55L128.54-17.55Q127.39-16.25 126.61-14.95 125.84-13.65 125.21-12.25 124.59-10.85 124.06-9.35 123.54-7.85 122.89-6.2L122.89-6.2Q122.34-4.8 121.89-3.33 121.44-1.85 121.39-0.75L121.39-0.75Q121.39 0.15 121.36 0.53 121.34 0.9 121.09 0.9L121.09 0.9Q120.89 0.9 120.29 0.65 119.69 0.4 119.06-0.13 118.44-0.65 117.94-1.45 117.44-2.25 117.44-3.35ZM126.99-25.05L126.99-25.05Q126.99-25.35 127.14-25.95L127.14-25.95Q126.89-26.2 126.71-26.7 126.54-27.2 126.54-27.6L126.54-27.6Q126.54-28.05 126.66-28.83 126.79-29.6 126.99-30.5 127.19-31.4 127.49-32.38 127.79-33.35 128.09-34.15L128.09-34.15Q128.69-34.15 129.56-33.83 130.44-33.5 131.34-32.98 132.24-32.45 132.99-31.83 133.74-31.2 134.14-30.65L134.14-30.65Q133.59-30.1 132.69-29.13 131.79-28.15 130.94-27.08 130.09-26 129.39-25.05 128.69-24.1 128.49-23.7L128.49-23.7Q127.89-23.8 127.44-24.23 126.99-24.65 126.99-25.05ZM119.09 14.9L119.09 14.9Q119.09 14.6 119.29 14.35 119.49 14.1 119.74 13.85L119.74 13.85Q120.34 14.4 120.76 14.7 121.19 15 121.56 15.2 121.94 15.4 122.34 15.45 122.74 15.5 123.29 15.5L123.29 15.5Q125.89 15.5 128.24 14.13 130.59 12.75 132.66 10.15 134.74 7.55 136.44 3.8 138.14 0.05 139.44-4.7L139.44-4.7Q138.84-4.1 137.96-3.38 137.09-2.65 136.14-2 135.19-1.35 134.26-0.8 133.34-0.25 132.69 0L132.69 0Q131.84-0.15 131.11-0.73 130.39-1.3 129.84-2.15 129.28-3 128.99-4.08 128.69-5.15 128.69-6.35L128.69-6.35Q128.69-8.3 129.41-10.35 130.14-12.4 131.34-14.38 132.53-16.35 134.16-18.1 135.78-19.85 137.61-21.15 139.44-22.45 141.31-23.23 143.19-24 144.99-24L144.99-24Q146.74-24 147.61-23.28 148.49-22.55 148.89-20.8L148.89-20.8Q148.34-21.1 147.49-21.1L147.49-21.1Q146.29-21.1 144.71-20.15 143.14-19.2 141.51-17.68 139.89-16.15 138.28-14.18 136.69-12.2 135.46-10.15 134.24-8.1 133.46-6.15 132.69-4.2 132.69-2.65L132.69-2.65Q132.69-2.3 132.74-2.23 132.78-2.15 132.89-2.15L132.89-2.15Q133.34-2.15 134.11-2.65 134.89-3.15 135.86-3.93 136.84-4.7 137.89-5.73 138.94-6.75 139.89-7.8L139.89-7.8Q142.03-10.2 143.81-13.18 145.59-16.15 146.64-18.95L146.64-18.95Q147.99-18.85 149.04-18.5 150.09-18.15 150.49-17.75L150.49-17.75Q148.79-13.85 147.76-11.2 146.74-8.55 145.99-6.5L145.99-6.5Q144.64-2.9 143.46 0.08 142.28 3.05 141.06 5.58 139.84 8.1 138.41 10.28 136.99 12.45 135.19 14.45L135.19 14.45Q134.34 15.4 133.26 16.13 132.19 16.85 131.06 17.35 129.94 17.85 128.86 18.1 127.79 18.35 126.89 18.35L126.89 18.35Q125.69 18.35 124.44 18.07 123.19 17.8 122.11 17.32 121.04 16.85 120.24 16.23 119.44 15.6 119.09 14.9ZM159.78-24.25L159.78-24.25Q161.08-23.85 162.23-22.48 163.38-21.1 163.93-19.45L163.93-19.45Q163.38-18.1 162.23-16.2 161.08-14.3 159.93-12.33 158.78-10.35 157.86-8.58 156.93-6.8 156.78-5.65L156.78-5.65Q157.58-6.5 158.56-7.63 159.53-8.75 160.46-9.88 161.38-11 162.18-11.93 162.98-12.85 163.43-13.3L163.43-13.3Q164.38-14.3 165.68-15.63 166.98-16.95 168.41-18.13 169.83-19.3 171.28-20.13 172.73-20.95 173.93-20.95L173.93-20.95Q175.23-20.95 176.11-20.08 176.98-19.2 177.48-18.25L177.48-18.25Q177.48-18.15 177.11-17.98 176.73-17.8 176.03-17L176.03-17Q175.33-16.1 174.46-14.53 173.58-12.95 172.76-11.13 171.93-9.3 171.38-7.4 170.83-5.5 170.83-3.95L170.83-3.95Q170.83-2.7 171.16-2.35 171.48-2 172.08-2L172.08-2Q172.63-2 173.23-2.25 173.83-2.5 174.18-2.5L174.18-2.5Q174.38-2.4 174.51-2.08 174.63-1.75 174.63-1.5L174.63-1.5Q174.23-1.15 173.68-0.8 173.13-0.45 172.53-0.15 171.93 0.15 171.36 0.35 170.78 0.55 170.33 0.55L170.33 0.55Q168.88 0.55 167.96 0.13 167.03-0.3 166.51-1 165.98-1.7 165.78-2.68 165.58-3.65 165.58-4.75L165.58-4.75Q165.58-5.35 165.68-6.1 165.78-6.85 166.08-7.88 166.38-8.9 166.93-10.33 167.48-11.75 168.33-13.75L168.33-13.75Q168.23-13.75 166.98-13.05 165.73-12.35 164.28-10.9L164.28-10.9Q161.93-8.65 160.06-6.45 158.18-4.25 156.23-1.55L156.23-1.55Q155.13 0 154.31 1.07 153.48 2.15 152.88 2.5L152.88 2.5Q151.83 1.9 151.33 0.83 150.83-0.25 150.58-1.4L150.58-1.4Q150.58-2.35 150.86-3.8 151.13-5.25 151.61-7.03 152.08-8.8 152.78-10.75 153.48-12.7 154.33-14.65L154.33-14.65Q156.23-19.05 157.81-21.55 159.38-24.05 159.78-24.25Z" opacity="1" transform="matrix(1,0,0,1,0,0)" fill="#0023ff" class="undefined-text-0" data-fill-palette-color="primary" id="text-0"></path></svg></g></svg></g></svg></g></svg></g><g></g></svg></g></svg></g></svg></g><g><path d="M92.308 61.822A122.216 122.216 0 0 1 303.212 61.822L295.643 61.822A114.647 114.647 0 0 0 99.877 61.822L92.308 61.822M92.308 185.378A122.216 122.216 0 0 0 303.212 185.378L295.643 185.378A114.647 114.647 0 0 1 99.877 185.378L92.308 185.378" fill="#0023ff" stroke="transparent" data-fill-palette-color="tertiary"></path></g></svg></g><defs></defs></svg><rect width="395.52" height="247.2" fill="none" stroke="none" visibility="hidden"></rect></g></svg></g></svg>