<?xml version="1.0" encoding="UTF-8"?>
<svg width="21px" height="20px" viewBox="0 0 21 20" version="1.1" xmlns="http://www.w3.org/2000/svg" xmlns:xlink="http://www.w3.org/1999/xlink">
    <!-- Generator: Sketch 48.2 (47327) - http://www.bohemiancoding.com/sketch -->
    <title>ic_cart</title>
    <desc>Created with Sketch.</desc>
    <defs></defs>
    <g id="001" stroke="none" stroke-width="1" fill="none" fill-rule="evenodd" transform="translate(-568.000000, -578.000000)">
        <g id="Group-6" transform="translate(155.000000, 181.000000)" stroke="#000">
            <g id="Group-4">
                <g id="card">
                    <g id="cart" transform="translate(413.000000, 398.000000)">
                        <g id="Group-7">
                            <g id="Page-1">
                                <path d="M0,0.0666666667 L3.02226667,0.0666666667 L7.19973333,8.46666667 L5.57,11.1722667 C5.3096,11.6046667 5.62093333,12.1556 6.12546667,12.1556 L17.3333333,12.1556" id="Stroke-1" stroke-linecap="round"></path>
                                <path d="M8.4,16.0333333 C8.4,16.8618039 7.72847059,17.5333333 6.9,17.5333333 C6.07152941,17.5333333 5.4,16.8618039 5.4,16.0333333 C5.4,15.2048627 6.07152941,14.5333333 6.9,14.5333333 C7.72847059,14.5333333 8.4,15.2048627 8.4,16.0333333 Z" id="Stroke-3"></path>
                                <path d="M17,16.0333333 C17,16.8618039 16.3284706,17.5333333 15.5,17.5333333 C14.6715294,17.5333333 14,16.8618039 14,16.0333333 C14,15.2048627 14.6715294,14.5333333 15.5,14.5333333 C16.3284706,14.5333333 17,15.2048627 17,16.0333333 Z" id="Stroke-5"></path>
                                <path d="M3.53333333,1.26666667 L19.3052,1.26666667 C19.7349333,1.26666667 20.0050667,1.72973333 19.7938667,2.10373333 L16.6841333,7.60946667 C16.3850667,8.13906667 15.8238667,8.46666667 15.2154667,8.46666667 L7.19973333,8.46666667" id="Stroke-7"></path>
                            </g>
                        </g>
                    </g>
                </g>
            </g>
        </g>
    </g>
</svg>